<svg width="51" height="64" viewBox="0 0 51 64" fill="none" xmlns="http://www.w3.org/2000/svg">
<mask id="path-1-outside-1_416_5677" maskUnits="userSpaceOnUse" x="-0.139526" y="-0.101746" width="51" height="64" fill="black">
<rect fill="white" x="-0.139526" y="-0.101746" width="51" height="64"/>
<path fill-rule="evenodd" clip-rule="evenodd" d="M19.4092 3.03843C18.7441 3.16722 16.5022 4.08655 14.9904 4.85117L13.7702 5.46838L12.8374 5.47445C12.2066 5.47891 11.4963 5.36267 10.6461 5.11563L9.38765 4.75033H7.74738C6.80894 4.75033 6.0692 4.80743 6.01853 4.88357C5.96985 4.95728 5.77634 5.01722 5.58881 5.01722C5.17066 5.01722 3.7251 6.27552 3.87871 6.50637C3.93856 6.59668 3.91901 6.62503 3.83083 6.5744C3.74585 6.5254 3.54595 6.75463 3.37039 7.1017L3.06037 7.71567L3.05758 8.73665C3.05598 9.29837 3.09149 9.90829 3.13618 10.0917C3.18127 10.2756 3.25907 10.6361 3.30895 10.8932C3.35882 11.15 3.48011 11.5108 3.57827 11.6943C3.67642 11.8778 3.85996 12.2512 3.98564 12.5241L4.21427 13.0198L3.7247 13.8262C3.45538 14.2696 3.27343 14.6321 3.32092 14.6321C3.3684 14.6321 3.30895 14.7374 3.18885 14.8658C2.92631 15.1468 2.91873 15.2043 2.87484 17.2362C2.85529 18.1636 2.92192 19.2328 3.03324 19.7734C3.13897 20.2878 3.28261 21.039 3.35244 21.4428C3.42266 21.847 3.62016 22.478 3.79173 22.8449C4.37227 24.0866 4.30085 24.8565 3.37278 27.3844L2.93189 28.5856L2.93389 29.588C2.93668 31.2671 3.37159 32.3456 4.70264 33.9761L5.28637 34.6909L5.34702 35.9006C5.38053 36.5676 5.33226 37.4241 5.23969 37.8097L5.07131 38.5087L4.34514 39.3507C3.94574 39.8136 3.4482 40.526 3.23952 40.9334L2.86047 41.6745L2.87125 43.0766L2.88242 44.4787L3.18725 45.0129C3.35443 45.3069 3.55952 45.7163 3.64211 45.9225C3.7251 46.129 3.85677 46.261 3.93497 46.2161C4.01956 46.1675 4.03871 46.227 3.98285 46.3635C3.91901 46.5178 3.94255 46.5615 4.05467 46.4971C4.1624 46.4352 4.19153 46.4724 4.13726 46.6041C4.04669 46.8232 4.44768 47.4323 5.12877 48.1106L5.55729 48.5375L5.46472 49.1644C5.40727 49.5556 5.1559 50.1109 4.7968 50.6398C4.48 51.1063 4.1233 51.8337 4.004 52.2569C3.72949 53.2277 3.73747 56.2157 4.01676 57.0783C4.1233 57.4084 4.17596 57.7308 4.13327 57.7952C4.02474 57.9584 5.12318 59.2803 5.71809 59.7023C6.4291 60.2069 7.13013 60.3559 8.67425 60.332C11.1273 60.2931 13.3884 59.9254 13.1721 59.5998C13.1207 59.522 13.149 59.501 13.2372 59.5512C13.3234 59.601 13.6078 59.5204 13.8696 59.3722C14.1305 59.224 14.5191 59.1025 14.7326 59.1025L15.1204 59.1017L15.5581 59.6938C15.7991 60.0194 16.1251 60.3239 16.2827 60.3705C16.4407 60.4171 16.5696 60.5041 16.5696 60.5645C16.5696 60.6244 16.8034 60.7771 17.0887 60.9031L17.6082 61.1323L19.4934 61.1205C20.5304 61.1137 21.7166 61.0898 22.1292 61.0667L22.8797 61.025L24.6413 60.198L26.4029 59.3706L27.1171 59.309C28.0264 59.2309 29.0031 59.4338 29.5581 59.8161C29.9946 60.1166 31.3759 60.6779 32.4213 60.9788C32.8047 61.0889 33.3546 61.1092 34.1442 61.0412C34.7818 60.9865 35.5514 60.9213 35.8543 60.8962C36.1571 60.8715 36.4803 60.7949 36.5721 60.7257C36.6638 60.6568 37.2536 60.3466 37.882 60.0364C38.5112 59.7262 39.2326 59.3256 39.4851 59.1462L39.9448 58.8198L40.5138 58.8805C40.8266 58.9142 41.2232 59.0113 41.3947 59.0968C41.7307 59.2641 43.9256 59.2171 45.5343 59.0081L46.4345 58.8911L47.2963 58.0892L47.4363 57.2812C47.5133 56.8365 47.5501 55.8775 47.5185 55.1498L47.4603 53.8267L47.0046 52.7587C46.7541 52.1711 46.3439 51.3323 46.0941 50.8945L45.6393 50.0991V48.218L47.1762 45.4138L47.2221 44.0781C47.2827 42.2998 47.0469 40.596 46.6375 39.8602C46.5226 39.6532 46.3423 39.0154 46.237 38.4427L46.0454 37.4011L46.2493 36.6C46.3618 36.1594 46.4676 35.7386 46.4847 35.6653C46.5023 35.5916 46.6615 35.2311 46.839 34.8642C47.2951 33.9214 47.3569 33.2523 47.1 32.0438C46.9771 31.4651 46.8343 30.6908 46.7824 30.3235C46.6723 29.5406 46.3439 28.4168 46.1627 28.2029C45.9764 27.983 45.5954 26.7976 45.5168 26.193C45.4366 25.5766 45.8487 24.4851 46.3515 23.9801C46.5346 23.7966 46.8977 23.29 47.1586 22.8546L47.633 22.0633L47.6526 21.0629C47.6825 19.4912 47.1483 17.7764 46.1771 16.3282C45.3911 15.1553 44.9933 14.2105 44.9933 13.5143C44.9933 12.7392 45.1385 12.4038 45.7306 11.8142C46.8961 10.6523 47.5325 9.15581 47.2887 8.14901C47.1391 7.53302 45.978 5.97299 45.1058 5.21647L44.3681 4.57659L43.4244 4.41338C41.5635 4.09181 36.7592 3.92617 34.8041 4.11652C34.2136 4.17403 33.2444 4.37733 32.6507 4.56808C31.3524 4.98563 30.0229 5.06136 28.3759 4.81108C27.0544 4.61061 27.1797 4.66123 25.9005 3.81237C25.3874 3.47218 24.765 3.11862 24.5176 3.02709C24.0364 2.8493 20.3453 2.85781 19.4092 3.03843ZM20.8045 5.03058C19.6957 5.14803 19.3534 5.26548 16.8968 6.37474C15.774 6.88179 14.6113 7.37548 14.3129 7.47186C13.2292 7.82177 11.0778 7.66626 10.2535 7.17865C10.056 7.06201 9.66815 6.95267 9.39204 6.93606C9.11554 6.91905 8.44882 6.87572 7.90977 6.83967C6.66849 6.75665 6.26591 6.89637 5.73684 7.59458L5.31151 8.15549L5.33704 9.07563C5.36896 10.2039 5.71848 11.2358 6.16017 11.5052C6.38042 11.6392 6.4662 11.7931 6.41753 11.966L6.34451 12.2256L6.68406 12.3524C6.87079 12.4217 6.93183 12.4824 6.82011 12.4873C6.70799 12.4917 6.65413 12.5306 6.70001 12.5731C6.84964 12.7124 6.12147 14.4754 5.65105 15.1108L5.19181 15.7325L5.13954 17.2856L5.08767 18.8387L5.38014 20.1003C5.54133 20.794 5.76197 21.5453 5.8705 21.7696C5.97903 21.994 6.17015 22.5181 6.29503 22.9348L6.52246 23.6921L6.36925 25.0715C6.28466 25.8301 6.11628 26.6611 5.99459 26.9179C4.86104 29.3122 4.9959 30.5656 6.62899 32.8133C7.58818 34.134 7.72304 34.6633 7.64045 36.7891L7.57422 38.501L7.12574 39.3535C6.87916 39.8221 6.46341 40.4158 6.20207 40.673C5.3933 41.468 5.19101 41.8673 5.11839 42.8134L5.05017 43.7015L5.27121 44.1571C5.3929 44.4074 5.61953 44.8829 5.77514 45.2133C5.93035 45.5438 6.41912 46.2047 6.86161 46.6822C7.31048 47.167 7.6983 47.7271 7.7398 47.9511C8.00314 49.3697 7.91137 49.7427 6.79817 51.7855L6.09075 53.0827L6.07878 54.4645C6.06002 56.6442 6.27389 57.342 7.15168 57.9649L7.63925 58.3107L9.12551 58.2516C11.1013 58.1726 11.6017 58.0726 12.6219 57.5514L13.4834 57.1115L14.5598 57.0346L15.6367 56.9572L16.2827 57.2618L16.9287 57.5659L17.2874 58.2014C17.4849 58.5505 17.7646 58.8716 17.909 58.9146C18.0535 58.9575 19.0222 58.9943 20.062 58.996L21.9528 58.9992L22.8079 58.6396C23.2779 58.4415 23.8433 58.1601 24.0639 58.0139C24.2846 57.8677 24.4649 57.779 24.4649 57.8166C24.4649 57.8543 24.7398 57.7721 25.0754 57.6344C26.0793 57.2221 28.1046 57.0885 29.2022 57.3622C29.5577 57.4505 30.1562 57.698 30.5325 57.9118C30.9087 58.1256 31.2822 58.3006 31.3624 58.3006C31.443 58.3006 31.8276 58.4508 32.217 58.6343C32.6064 58.8182 33.0609 58.968 33.2265 58.968C33.3925 58.968 33.657 59.0324 33.8146 59.111C33.9938 59.2001 34.1657 59.2074 34.2719 59.1296C34.3656 59.0616 34.6581 58.9676 34.9222 58.921C35.648 58.7931 37.1351 58.0928 37.9426 57.4987C38.5922 57.0212 39.1105 56.8264 40.2847 56.6191C40.4978 56.5814 40.8605 56.6413 41.0907 56.7519C41.3209 56.8625 41.6956 56.9888 41.9234 57.0318C42.6149 57.163 44.6853 57.1184 44.9921 56.9657L45.2802 56.822L45.277 55.8589C45.275 55.3288 45.2067 54.6549 45.1258 54.3608C45.0444 54.0672 44.9654 53.7368 44.9498 53.6266C44.9342 53.5164 44.8891 53.3962 44.8496 53.3593C44.8101 53.3225 44.5065 52.7818 44.1741 52.1573C43.5565 50.9954 43.422 50.524 43.3303 49.1924L43.2776 48.431L43.4998 48.2244C43.6219 48.1106 43.6527 48.0179 43.5677 48.0179C43.3929 48.0179 43.3586 47.5797 43.5218 47.4278C43.5812 47.3727 43.6295 47.2828 43.6295 47.2282C43.6295 47.1006 44.0169 46.3412 44.8205 44.8934L45.0348 44.507L44.9498 42.9304L44.8644 41.3542L44.5113 40.5126C43.9116 39.0846 43.8266 38.6744 43.8354 37.2528L43.8414 36.3031L45.0112 33.0486L44.8652 32.621C44.7854 32.3853 44.645 31.5619 44.5532 30.7908C44.4578 29.9861 44.301 29.298 44.1857 29.1761C43.7668 28.7326 43.2481 27.2629 43.2708 26.5842C43.2828 26.2168 43.2944 25.6462 43.296 25.3157C43.298 24.9853 43.3518 24.6544 43.4165 24.5811C43.4807 24.5078 43.5445 24.3875 43.5585 24.3142C43.5725 24.2405 43.675 23.9781 43.7859 23.7302C43.8972 23.4823 43.9882 23.2365 43.9882 23.1835C43.9882 23.13 44.1167 22.9785 44.2739 22.8465C44.4307 22.7145 44.7627 22.3115 45.0112 21.9511L45.4625 21.2966L45.3855 20.6004C45.3081 19.9022 44.3776 17.5124 44.0732 17.2293C43.7472 16.9264 42.9748 15.3526 42.8966 14.8326C42.8527 14.5389 42.784 13.8614 42.7449 13.3276L42.6735 12.3569L42.9684 11.7919C43.1308 11.4813 43.5294 10.9281 43.8545 10.5632C44.5281 9.80663 44.9933 9.02136 44.9933 8.64067C44.9933 8.30371 43.7991 6.93971 43.298 6.7036C42.786 6.46263 42.0471 6.3383 40.3996 6.21558C39.6495 6.15969 38.7933 6.08356 38.4972 6.0463C38.2008 6.00904 37.9219 6.03334 37.8776 6.10016C37.8333 6.16698 37.2037 6.21558 36.4783 6.20829C35.7529 6.201 34.8368 6.26499 34.4422 6.35085C34.0472 6.4363 33.5952 6.52135 33.4372 6.53917C33.2792 6.55739 32.9915 6.65176 32.7972 6.74896C32.2497 7.02354 30.3182 7.15354 28.9357 7.00896C26.92 6.79836 25.9257 6.51366 25.059 5.89969C24.6333 5.59797 24.1784 5.27763 24.0484 5.18772C23.7627 4.99049 21.9915 4.90463 20.8045 5.03058Z"/>
</mask>
<path fill-rule="evenodd" clip-rule="evenodd" d="M19.4092 3.03843C18.7441 3.16722 16.5022 4.08655 14.9904 4.85117L13.7702 5.46838L12.8374 5.47445C12.2066 5.47891 11.4963 5.36267 10.6461 5.11563L9.38765 4.75033H7.74738C6.80894 4.75033 6.0692 4.80743 6.01853 4.88357C5.96985 4.95728 5.77634 5.01722 5.58881 5.01722C5.17066 5.01722 3.7251 6.27552 3.87871 6.50637C3.93856 6.59668 3.91901 6.62503 3.83083 6.5744C3.74585 6.5254 3.54595 6.75463 3.37039 7.1017L3.06037 7.71567L3.05758 8.73665C3.05598 9.29837 3.09149 9.90829 3.13618 10.0917C3.18127 10.2756 3.25907 10.6361 3.30895 10.8932C3.35882 11.15 3.48011 11.5108 3.57827 11.6943C3.67642 11.8778 3.85996 12.2512 3.98564 12.5241L4.21427 13.0198L3.7247 13.8262C3.45538 14.2696 3.27343 14.6321 3.32092 14.6321C3.3684 14.6321 3.30895 14.7374 3.18885 14.8658C2.92631 15.1468 2.91873 15.2043 2.87484 17.2362C2.85529 18.1636 2.92192 19.2328 3.03324 19.7734C3.13897 20.2878 3.28261 21.039 3.35244 21.4428C3.42266 21.847 3.62016 22.478 3.79173 22.8449C4.37227 24.0866 4.30085 24.8565 3.37278 27.3844L2.93189 28.5856L2.93389 29.588C2.93668 31.2671 3.37159 32.3456 4.70264 33.9761L5.28637 34.6909L5.34702 35.9006C5.38053 36.5676 5.33226 37.4241 5.23969 37.8097L5.07131 38.5087L4.34514 39.3507C3.94574 39.8136 3.4482 40.526 3.23952 40.9334L2.86047 41.6745L2.87125 43.0766L2.88242 44.4787L3.18725 45.0129C3.35443 45.3069 3.55952 45.7163 3.64211 45.9225C3.7251 46.129 3.85677 46.261 3.93497 46.2161C4.01956 46.1675 4.03871 46.227 3.98285 46.3635C3.91901 46.5178 3.94255 46.5615 4.05467 46.4971C4.1624 46.4352 4.19153 46.4724 4.13726 46.6041C4.04669 46.8232 4.44768 47.4323 5.12877 48.1106L5.55729 48.5375L5.46472 49.1644C5.40727 49.5556 5.1559 50.1109 4.7968 50.6398C4.48 51.1063 4.1233 51.8337 4.004 52.2569C3.72949 53.2277 3.73747 56.2157 4.01676 57.0783C4.1233 57.4084 4.17596 57.7308 4.13327 57.7952C4.02474 57.9584 5.12318 59.2803 5.71809 59.7023C6.4291 60.2069 7.13013 60.3559 8.67425 60.332C11.1273 60.2931 13.3884 59.9254 13.1721 59.5998C13.1207 59.522 13.149 59.501 13.2372 59.5512C13.3234 59.601 13.6078 59.5204 13.8696 59.3722C14.1305 59.224 14.5191 59.1025 14.7326 59.1025L15.1204 59.1017L15.5581 59.6938C15.7991 60.0194 16.1251 60.3239 16.2827 60.3705C16.4407 60.4171 16.5696 60.5041 16.5696 60.5645C16.5696 60.6244 16.8034 60.7771 17.0887 60.9031L17.6082 61.1323L19.4934 61.1205C20.5304 61.1137 21.7166 61.0898 22.1292 61.0667L22.8797 61.025L24.6413 60.198L26.4029 59.3706L27.1171 59.309C28.0264 59.2309 29.0031 59.4338 29.5581 59.8161C29.9946 60.1166 31.3759 60.6779 32.4213 60.9788C32.8047 61.0889 33.3546 61.1092 34.1442 61.0412C34.7818 60.9865 35.5514 60.9213 35.8543 60.8962C36.1571 60.8715 36.4803 60.7949 36.5721 60.7257C36.6638 60.6568 37.2536 60.3466 37.882 60.0364C38.5112 59.7262 39.2326 59.3256 39.4851 59.1462L39.9448 58.8198L40.5138 58.8805C40.8266 58.9142 41.2232 59.0113 41.3947 59.0968C41.7307 59.2641 43.9256 59.2171 45.5343 59.0081L46.4345 58.8911L47.2963 58.0892L47.4363 57.2812C47.5133 56.8365 47.5501 55.8775 47.5185 55.1498L47.4603 53.8267L47.0046 52.7587C46.7541 52.1711 46.3439 51.3323 46.0941 50.8945L45.6393 50.0991V48.218L47.1762 45.4138L47.2221 44.0781C47.2827 42.2998 47.0469 40.596 46.6375 39.8602C46.5226 39.6532 46.3423 39.0154 46.237 38.4427L46.0454 37.4011L46.2493 36.6C46.3618 36.1594 46.4676 35.7386 46.4847 35.6653C46.5023 35.5916 46.6615 35.2311 46.839 34.8642C47.2951 33.9214 47.3569 33.2523 47.1 32.0438C46.9771 31.4651 46.8343 30.6908 46.7824 30.3235C46.6723 29.5406 46.3439 28.4168 46.1627 28.2029C45.9764 27.983 45.5954 26.7976 45.5168 26.193C45.4366 25.5766 45.8487 24.4851 46.3515 23.9801C46.5346 23.7966 46.8977 23.29 47.1586 22.8546L47.633 22.0633L47.6526 21.0629C47.6825 19.4912 47.1483 17.7764 46.1771 16.3282C45.3911 15.1553 44.9933 14.2105 44.9933 13.5143C44.9933 12.7392 45.1385 12.4038 45.7306 11.8142C46.8961 10.6523 47.5325 9.15581 47.2887 8.14901C47.1391 7.53302 45.978 5.97299 45.1058 5.21647L44.3681 4.57659L43.4244 4.41338C41.5635 4.09181 36.7592 3.92617 34.8041 4.11652C34.2136 4.17403 33.2444 4.37733 32.6507 4.56808C31.3524 4.98563 30.0229 5.06136 28.3759 4.81108C27.0544 4.61061 27.1797 4.66123 25.9005 3.81237C25.3874 3.47218 24.765 3.11862 24.5176 3.02709C24.0364 2.8493 20.3453 2.85781 19.4092 3.03843ZM20.8045 5.03058C19.6957 5.14803 19.3534 5.26548 16.8968 6.37474C15.774 6.88179 14.6113 7.37548 14.3129 7.47186C13.2292 7.82177 11.0778 7.66626 10.2535 7.17865C10.056 7.06201 9.66815 6.95267 9.39204 6.93606C9.11554 6.91905 8.44882 6.87572 7.90977 6.83967C6.66849 6.75665 6.26591 6.89637 5.73684 7.59458L5.31151 8.15549L5.33704 9.07563C5.36896 10.2039 5.71848 11.2358 6.16017 11.5052C6.38042 11.6392 6.4662 11.7931 6.41753 11.966L6.34451 12.2256L6.68406 12.3524C6.87079 12.4217 6.93183 12.4824 6.82011 12.4873C6.70799 12.4917 6.65413 12.5306 6.70001 12.5731C6.84964 12.7124 6.12147 14.4754 5.65105 15.1108L5.19181 15.7325L5.13954 17.2856L5.08767 18.8387L5.38014 20.1003C5.54133 20.794 5.76197 21.5453 5.8705 21.7696C5.97903 21.994 6.17015 22.5181 6.29503 22.9348L6.52246 23.6921L6.36925 25.0715C6.28466 25.8301 6.11628 26.6611 5.99459 26.9179C4.86104 29.3122 4.9959 30.5656 6.62899 32.8133C7.58818 34.134 7.72304 34.6633 7.64045 36.7891L7.57422 38.501L7.12574 39.3535C6.87916 39.8221 6.46341 40.4158 6.20207 40.673C5.3933 41.468 5.19101 41.8673 5.11839 42.8134L5.05017 43.7015L5.27121 44.1571C5.3929 44.4074 5.61953 44.8829 5.77514 45.2133C5.93035 45.5438 6.41912 46.2047 6.86161 46.6822C7.31048 47.167 7.6983 47.7271 7.7398 47.9511C8.00314 49.3697 7.91137 49.7427 6.79817 51.7855L6.09075 53.0827L6.07878 54.4645C6.06002 56.6442 6.27389 57.342 7.15168 57.9649L7.63925 58.3107L9.12551 58.2516C11.1013 58.1726 11.6017 58.0726 12.6219 57.5514L13.4834 57.1115L14.5598 57.0346L15.6367 56.9572L16.2827 57.2618L16.9287 57.5659L17.2874 58.2014C17.4849 58.5505 17.7646 58.8716 17.909 58.9146C18.0535 58.9575 19.0222 58.9943 20.062 58.996L21.9528 58.9992L22.8079 58.6396C23.2779 58.4415 23.8433 58.1601 24.0639 58.0139C24.2846 57.8677 24.4649 57.779 24.4649 57.8166C24.4649 57.8543 24.7398 57.7721 25.0754 57.6344C26.0793 57.2221 28.1046 57.0885 29.2022 57.3622C29.5577 57.4505 30.1562 57.698 30.5325 57.9118C30.9087 58.1256 31.2822 58.3006 31.3624 58.3006C31.443 58.3006 31.8276 58.4508 32.217 58.6343C32.6064 58.8182 33.0609 58.968 33.2265 58.968C33.3925 58.968 33.657 59.0324 33.8146 59.111C33.9938 59.2001 34.1657 59.2074 34.2719 59.1296C34.3656 59.0616 34.6581 58.9676 34.9222 58.921C35.648 58.7931 37.1351 58.0928 37.9426 57.4987C38.5922 57.0212 39.1105 56.8264 40.2847 56.6191C40.4978 56.5814 40.8605 56.6413 41.0907 56.7519C41.3209 56.8625 41.6956 56.9888 41.9234 57.0318C42.6149 57.163 44.6853 57.1184 44.9921 56.9657L45.2802 56.822L45.277 55.8589C45.275 55.3288 45.2067 54.6549 45.1258 54.3608C45.0444 54.0672 44.9654 53.7368 44.9498 53.6266C44.9342 53.5164 44.8891 53.3962 44.8496 53.3593C44.8101 53.3225 44.5065 52.7818 44.1741 52.1573C43.5565 50.9954 43.422 50.524 43.3303 49.1924L43.2776 48.431L43.4998 48.2244C43.6219 48.1106 43.6527 48.0179 43.5677 48.0179C43.3929 48.0179 43.3586 47.5797 43.5218 47.4278C43.5812 47.3727 43.6295 47.2828 43.6295 47.2282C43.6295 47.1006 44.0169 46.3412 44.8205 44.8934L45.0348 44.507L44.9498 42.9304L44.8644 41.3542L44.5113 40.5126C43.9116 39.0846 43.8266 38.6744 43.8354 37.2528L43.8414 36.3031L45.0112 33.0486L44.8652 32.621C44.7854 32.3853 44.645 31.5619 44.5532 30.7908C44.4578 29.9861 44.301 29.298 44.1857 29.1761C43.7668 28.7326 43.2481 27.2629 43.2708 26.5842C43.2828 26.2168 43.2944 25.6462 43.296 25.3157C43.298 24.9853 43.3518 24.6544 43.4165 24.5811C43.4807 24.5078 43.5445 24.3875 43.5585 24.3142C43.5725 24.2405 43.675 23.9781 43.7859 23.7302C43.8972 23.4823 43.9882 23.2365 43.9882 23.1835C43.9882 23.13 44.1167 22.9785 44.2739 22.8465C44.4307 22.7145 44.7627 22.3115 45.0112 21.9511L45.4625 21.2966L45.3855 20.6004C45.3081 19.9022 44.3776 17.5124 44.0732 17.2293C43.7472 16.9264 42.9748 15.3526 42.8966 14.8326C42.8527 14.5389 42.784 13.8614 42.7449 13.3276L42.6735 12.3569L42.9684 11.7919C43.1308 11.4813 43.5294 10.9281 43.8545 10.5632C44.5281 9.80663 44.9933 9.02136 44.9933 8.64067C44.9933 8.30371 43.7991 6.93971 43.298 6.7036C42.786 6.46263 42.0471 6.3383 40.3996 6.21558C39.6495 6.15969 38.7933 6.08356 38.4972 6.0463C38.2008 6.00904 37.9219 6.03334 37.8776 6.10016C37.8333 6.16698 37.2037 6.21558 36.4783 6.20829C35.7529 6.201 34.8368 6.26499 34.4422 6.35085C34.0472 6.4363 33.5952 6.52135 33.4372 6.53917C33.2792 6.55739 32.9915 6.65176 32.7972 6.74896C32.2497 7.02354 30.3182 7.15354 28.9357 7.00896C26.92 6.79836 25.9257 6.51366 25.059 5.89969C24.6333 5.59797 24.1784 5.27763 24.0484 5.18772C23.7627 4.99049 21.9915 4.90463 20.8045 5.03058Z" fill="#FDFFF4"/>
<path fill-rule="evenodd" clip-rule="evenodd" d="M19.4092 3.03843C18.7441 3.16722 16.5022 4.08655 14.9904 4.85117L13.7702 5.46838L12.8374 5.47445C12.2066 5.47891 11.4963 5.36267 10.6461 5.11563L9.38765 4.75033H7.74738C6.80894 4.75033 6.0692 4.80743 6.01853 4.88357C5.96985 4.95728 5.77634 5.01722 5.58881 5.01722C5.17066 5.01722 3.7251 6.27552 3.87871 6.50637C3.93856 6.59668 3.91901 6.62503 3.83083 6.5744C3.74585 6.5254 3.54595 6.75463 3.37039 7.1017L3.06037 7.71567L3.05758 8.73665C3.05598 9.29837 3.09149 9.90829 3.13618 10.0917C3.18127 10.2756 3.25907 10.6361 3.30895 10.8932C3.35882 11.15 3.48011 11.5108 3.57827 11.6943C3.67642 11.8778 3.85996 12.2512 3.98564 12.5241L4.21427 13.0198L3.7247 13.8262C3.45538 14.2696 3.27343 14.6321 3.32092 14.6321C3.3684 14.6321 3.30895 14.7374 3.18885 14.8658C2.92631 15.1468 2.91873 15.2043 2.87484 17.2362C2.85529 18.1636 2.92192 19.2328 3.03324 19.7734C3.13897 20.2878 3.28261 21.039 3.35244 21.4428C3.42266 21.847 3.62016 22.478 3.79173 22.8449C4.37227 24.0866 4.30085 24.8565 3.37278 27.3844L2.93189 28.5856L2.93389 29.588C2.93668 31.2671 3.37159 32.3456 4.70264 33.9761L5.28637 34.6909L5.34702 35.9006C5.38053 36.5676 5.33226 37.4241 5.23969 37.8097L5.07131 38.5087L4.34514 39.3507C3.94574 39.8136 3.4482 40.526 3.23952 40.9334L2.86047 41.6745L2.87125 43.0766L2.88242 44.4787L3.18725 45.0129C3.35443 45.3069 3.55952 45.7163 3.64211 45.9225C3.7251 46.129 3.85677 46.261 3.93497 46.2161C4.01956 46.1675 4.03871 46.227 3.98285 46.3635C3.91901 46.5178 3.94255 46.5615 4.05467 46.4971C4.1624 46.4352 4.19153 46.4724 4.13726 46.6041C4.04669 46.8232 4.44768 47.4323 5.12877 48.1106L5.55729 48.5375L5.46472 49.1644C5.40727 49.5556 5.1559 50.1109 4.7968 50.6398C4.48 51.1063 4.1233 51.8337 4.004 52.2569C3.72949 53.2277 3.73747 56.2157 4.01676 57.0783C4.1233 57.4084 4.17596 57.7308 4.13327 57.7952C4.02474 57.9584 5.12318 59.2803 5.71809 59.7023C6.4291 60.2069 7.13013 60.3559 8.67425 60.332C11.1273 60.2931 13.3884 59.9254 13.1721 59.5998C13.1207 59.522 13.149 59.501 13.2372 59.5512C13.3234 59.601 13.6078 59.5204 13.8696 59.3722C14.1305 59.224 14.5191 59.1025 14.7326 59.1025L15.1204 59.1017L15.5581 59.6938C15.7991 60.0194 16.1251 60.3239 16.2827 60.3705C16.4407 60.4171 16.5696 60.5041 16.5696 60.5645C16.5696 60.6244 16.8034 60.7771 17.0887 60.9031L17.6082 61.1323L19.4934 61.1205C20.5304 61.1137 21.7166 61.0898 22.1292 61.0667L22.8797 61.025L24.6413 60.198L26.4029 59.3706L27.1171 59.309C28.0264 59.2309 29.0031 59.4338 29.5581 59.8161C29.9946 60.1166 31.3759 60.6779 32.4213 60.9788C32.8047 61.0889 33.3546 61.1092 34.1442 61.0412C34.7818 60.9865 35.5514 60.9213 35.8543 60.8962C36.1571 60.8715 36.4803 60.7949 36.5721 60.7257C36.6638 60.6568 37.2536 60.3466 37.882 60.0364C38.5112 59.7262 39.2326 59.3256 39.4851 59.1462L39.9448 58.8198L40.5138 58.8805C40.8266 58.9142 41.2232 59.0113 41.3947 59.0968C41.7307 59.2641 43.9256 59.2171 45.5343 59.0081L46.4345 58.8911L47.2963 58.0892L47.4363 57.2812C47.5133 56.8365 47.5501 55.8775 47.5185 55.1498L47.4603 53.8267L47.0046 52.7587C46.7541 52.1711 46.3439 51.3323 46.0941 50.8945L45.6393 50.0991V48.218L47.1762 45.4138L47.2221 44.0781C47.2827 42.2998 47.0469 40.596 46.6375 39.8602C46.5226 39.6532 46.3423 39.0154 46.237 38.4427L46.0454 37.4011L46.2493 36.6C46.3618 36.1594 46.4676 35.7386 46.4847 35.6653C46.5023 35.5916 46.6615 35.2311 46.839 34.8642C47.2951 33.9214 47.3569 33.2523 47.1 32.0438C46.9771 31.4651 46.8343 30.6908 46.7824 30.3235C46.6723 29.5406 46.3439 28.4168 46.1627 28.2029C45.9764 27.983 45.5954 26.7976 45.5168 26.193C45.4366 25.5766 45.8487 24.4851 46.3515 23.9801C46.5346 23.7966 46.8977 23.29 47.1586 22.8546L47.633 22.0633L47.6526 21.0629C47.6825 19.4912 47.1483 17.7764 46.1771 16.3282C45.3911 15.1553 44.9933 14.2105 44.9933 13.5143C44.9933 12.7392 45.1385 12.4038 45.7306 11.8142C46.8961 10.6523 47.5325 9.15581 47.2887 8.14901C47.1391 7.53302 45.978 5.97299 45.1058 5.21647L44.3681 4.57659L43.4244 4.41338C41.5635 4.09181 36.7592 3.92617 34.8041 4.11652C34.2136 4.17403 33.2444 4.37733 32.6507 4.56808C31.3524 4.98563 30.0229 5.06136 28.3759 4.81108C27.0544 4.61061 27.1797 4.66123 25.9005 3.81237C25.3874 3.47218 24.765 3.11862 24.5176 3.02709C24.0364 2.8493 20.3453 2.85781 19.4092 3.03843ZM20.8045 5.03058C19.6957 5.14803 19.3534 5.26548 16.8968 6.37474C15.774 6.88179 14.6113 7.37548 14.3129 7.47186C13.2292 7.82177 11.0778 7.66626 10.2535 7.17865C10.056 7.06201 9.66815 6.95267 9.39204 6.93606C9.11554 6.91905 8.44882 6.87572 7.90977 6.83967C6.66849 6.75665 6.26591 6.89637 5.73684 7.59458L5.31151 8.15549L5.33704 9.07563C5.36896 10.2039 5.71848 11.2358 6.16017 11.5052C6.38042 11.6392 6.4662 11.7931 6.41753 11.966L6.34451 12.2256L6.68406 12.3524C6.87079 12.4217 6.93183 12.4824 6.82011 12.4873C6.70799 12.4917 6.65413 12.5306 6.70001 12.5731C6.84964 12.7124 6.12147 14.4754 5.65105 15.1108L5.19181 15.7325L5.13954 17.2856L5.08767 18.8387L5.38014 20.1003C5.54133 20.794 5.76197 21.5453 5.8705 21.7696C5.97903 21.994 6.17015 22.5181 6.29503 22.9348L6.52246 23.6921L6.36925 25.0715C6.28466 25.8301 6.11628 26.6611 5.99459 26.9179C4.86104 29.3122 4.9959 30.5656 6.62899 32.8133C7.58818 34.134 7.72304 34.6633 7.64045 36.7891L7.57422 38.501L7.12574 39.3535C6.87916 39.8221 6.46341 40.4158 6.20207 40.673C5.3933 41.468 5.19101 41.8673 5.11839 42.8134L5.05017 43.7015L5.27121 44.1571C5.3929 44.4074 5.61953 44.8829 5.77514 45.2133C5.93035 45.5438 6.41912 46.2047 6.86161 46.6822C7.31048 47.167 7.6983 47.7271 7.7398 47.9511C8.00314 49.3697 7.91137 49.7427 6.79817 51.7855L6.09075 53.0827L6.07878 54.4645C6.06002 56.6442 6.27389 57.342 7.15168 57.9649L7.63925 58.3107L9.12551 58.2516C11.1013 58.1726 11.6017 58.0726 12.6219 57.5514L13.4834 57.1115L14.5598 57.0346L15.6367 56.9572L16.2827 57.2618L16.9287 57.5659L17.2874 58.2014C17.4849 58.5505 17.7646 58.8716 17.909 58.9146C18.0535 58.9575 19.0222 58.9943 20.062 58.996L21.9528 58.9992L22.8079 58.6396C23.2779 58.4415 23.8433 58.1601 24.0639 58.0139C24.2846 57.8677 24.4649 57.779 24.4649 57.8166C24.4649 57.8543 24.7398 57.7721 25.0754 57.6344C26.0793 57.2221 28.1046 57.0885 29.2022 57.3622C29.5577 57.4505 30.1562 57.698 30.5325 57.9118C30.9087 58.1256 31.2822 58.3006 31.3624 58.3006C31.443 58.3006 31.8276 58.4508 32.217 58.6343C32.6064 58.8182 33.0609 58.968 33.2265 58.968C33.3925 58.968 33.657 59.0324 33.8146 59.111C33.9938 59.2001 34.1657 59.2074 34.2719 59.1296C34.3656 59.0616 34.6581 58.9676 34.9222 58.921C35.648 58.7931 37.1351 58.0928 37.9426 57.4987C38.5922 57.0212 39.1105 56.8264 40.2847 56.6191C40.4978 56.5814 40.8605 56.6413 41.0907 56.7519C41.3209 56.8625 41.6956 56.9888 41.9234 57.0318C42.6149 57.163 44.6853 57.1184 44.9921 56.9657L45.2802 56.822L45.277 55.8589C45.275 55.3288 45.2067 54.6549 45.1258 54.3608C45.0444 54.0672 44.9654 53.7368 44.9498 53.6266C44.9342 53.5164 44.8891 53.3962 44.8496 53.3593C44.8101 53.3225 44.5065 52.7818 44.1741 52.1573C43.5565 50.9954 43.422 50.524 43.3303 49.1924L43.2776 48.431L43.4998 48.2244C43.6219 48.1106 43.6527 48.0179 43.5677 48.0179C43.3929 48.0179 43.3586 47.5797 43.5218 47.4278C43.5812 47.3727 43.6295 47.2828 43.6295 47.2282C43.6295 47.1006 44.0169 46.3412 44.8205 44.8934L45.0348 44.507L44.9498 42.9304L44.8644 41.3542L44.5113 40.5126C43.9116 39.0846 43.8266 38.6744 43.8354 37.2528L43.8414 36.3031L45.0112 33.0486L44.8652 32.621C44.7854 32.3853 44.645 31.5619 44.5532 30.7908C44.4578 29.9861 44.301 29.298 44.1857 29.1761C43.7668 28.7326 43.2481 27.2629 43.2708 26.5842C43.2828 26.2168 43.2944 25.6462 43.296 25.3157C43.298 24.9853 43.3518 24.6544 43.4165 24.5811C43.4807 24.5078 43.5445 24.3875 43.5585 24.3142C43.5725 24.2405 43.675 23.9781 43.7859 23.7302C43.8972 23.4823 43.9882 23.2365 43.9882 23.1835C43.9882 23.13 44.1167 22.9785 44.2739 22.8465C44.4307 22.7145 44.7627 22.3115 45.0112 21.9511L45.4625 21.2966L45.3855 20.6004C45.3081 19.9022 44.3776 17.5124 44.0732 17.2293C43.7472 16.9264 42.9748 15.3526 42.8966 14.8326C42.8527 14.5389 42.784 13.8614 42.7449 13.3276L42.6735 12.3569L42.9684 11.7919C43.1308 11.4813 43.5294 10.9281 43.8545 10.5632C44.5281 9.80663 44.9933 9.02136 44.9933 8.64067C44.9933 8.30371 43.7991 6.93971 43.298 6.7036C42.786 6.46263 42.0471 6.3383 40.3996 6.21558C39.6495 6.15969 38.7933 6.08356 38.4972 6.0463C38.2008 6.00904 37.9219 6.03334 37.8776 6.10016C37.8333 6.16698 37.2037 6.21558 36.4783 6.20829C35.7529 6.201 34.8368 6.26499 34.4422 6.35085C34.0472 6.4363 33.5952 6.52135 33.4372 6.53917C33.2792 6.55739 32.9915 6.65176 32.7972 6.74896C32.2497 7.02354 30.3182 7.15354 28.9357 7.00896C26.92 6.79836 25.9257 6.51366 25.059 5.89969C24.6333 5.59797 24.1784 5.27763 24.0484 5.18772C23.7627 4.99049 21.9915 4.90463 20.8045 5.03058Z" stroke="url(#paint0_radial_416_5677)" stroke-width="4.77942" mask="url(#path-1-outside-1_416_5677)"/>
<defs>
<radialGradient id="paint0_radial_416_5677" cx="0" cy="0" r="1" gradientTransform="matrix(0.0133659 46.1035 -107.99 0.0322551 25.2571 32.0153)" gradientUnits="userSpaceOnUse">
<stop stop-color="#9EA0F1"/>
<stop offset="1" stop-color="#F9B9DC"/>
</radialGradient>
</defs>
</svg>
