<svg width="10" height="10" viewBox="0 0 10 10" fill="none" xmlns="http://www.w3.org/2000/svg">
<path d="M9.20562 7.27324C10.1862 5.81026 9.88105 3.88803 8.52392 2.97843C7.77415 2.47591 6.86185 2.38796 6.0295 2.65623C5.96129 1.78437 5.53216 0.973257 4.78344 0.471436C3.42631 -0.438158 1.53236 0.0101861 0.551824 1.47316C0.0373438 2.24078 -0.0653942 3.10277 0.0372098 3.94368L1.12107 9.99999L7.04692 8.70072C7.82172 8.50021 8.67677 8.06229 9.20562 7.27324Z" fill="#FF60B6"/>
<path d="M1.12107 9.99999L0.0361431 3.94297C-0.0675064 3.10136 0.0362688 2.24007 0.550756 1.47245C1.53129 0.00947057 3.42524 -0.438874 4.78237 0.470721C5.53215 0.973244 5.96023 1.78366 6.02843 2.65551L1.12107 9.99999Z" fill="#FF60B6"/>
</svg>
