<svg width="65" height="68" viewBox="0 0 65 68" fill="none" xmlns="http://www.w3.org/2000/svg">
<g filter="url(#filter0_di_416_4579)">
<path d="M61.4945 26.9499L32.4886 51.6029L3.48265 26.9499M61.4945 63.4855H3.48265V27.8693L32.4886 3.2163L61.4945 27.8693V63.4855ZM39.6507 23.887C38.2938 23.8563 36.947 24.136 35.7058 24.7064C34.4646 25.2768 33.3593 26.1238 32.4683 27.1874C31.5773 26.1238 30.472 25.2768 29.2308 24.7064C27.9896 24.136 26.6428 23.8563 25.2859 23.887C23.2018 23.694 21.1281 24.3588 19.511 25.7382C17.8939 27.1176 16.8627 29.1015 16.6393 31.2628C16.6393 42.3695 32.4683 48.4825 32.4683 48.4825C32.4683 48.4825 48.2972 42.3121 48.2972 31.2628C48.0738 29.1015 47.0426 27.1176 45.4256 25.7382C43.8085 24.3588 41.7348 23.694 39.6507 23.887Z" stroke="url(#paint0_linear_416_4579)" stroke-width="4.8831" stroke-miterlimit="10" shape-rendering="crispEdges"/>
</g>
<defs>
<filter id="filter0_di_416_4579" x="9.93167e-06" y="0" width="64.9772" height="68" filterUnits="userSpaceOnUse" color-interpolation-filters="sRGB">
<feFlood flood-opacity="0" result="BackgroundImageFix"/>
<feColorMatrix in="SourceAlpha" type="matrix" values="0 0 0 0 0 0 0 0 0 0 0 0 0 0 0 0 0 0 127 0" result="hardAlpha"/>
<feOffset dy="1.02802"/>
<feGaussianBlur stdDeviation="0.51401"/>
<feComposite in2="hardAlpha" operator="out"/>
<feColorMatrix type="matrix" values="0 0 0 0 0 0 0 0 0 0 0 0 0 0 0 0 0 0 0.25 0"/>
<feBlend mode="normal" in2="BackgroundImageFix" result="effect1_dropShadow_416_4579"/>
<feBlend mode="normal" in="SourceGraphic" in2="effect1_dropShadow_416_4579" result="shape"/>
<feColorMatrix in="SourceAlpha" type="matrix" values="0 0 0 0 0 0 0 0 0 0 0 0 0 0 0 0 0 0 127 0" result="hardAlpha"/>
<feOffset dy="2.82706"/>
<feGaussianBlur stdDeviation="0.642513"/>
<feComposite in2="hardAlpha" operator="arithmetic" k2="-1" k3="1"/>
<feColorMatrix type="matrix" values="0 0 0 0 1 0 0 0 0 1 0 0 0 0 1 0 0 0 0.25 0"/>
<feBlend mode="normal" in2="shape" result="effect2_innerShadow_416_4579"/>
</filter>
<linearGradient id="paint0_linear_416_4579" x1="32.3757" y1="11.6005" x2="32.3757" y2="70.2895" gradientUnits="userSpaceOnUse">
<stop offset="0.168985" stop-color="#FE9DD2"/>
<stop offset="0.571458" stop-color="#FF60B6"/>
<stop offset="0.730008" stop-color="#F992F9"/>
<stop offset="0.865004" stop-color="#BA9AFB"/>
<stop offset="1" stop-color="#7BA2FD"/>
</linearGradient>
</defs>
</svg>
