<svg width="36" height="37" viewBox="0 0 36 37" fill="none" xmlns="http://www.w3.org/2000/svg">
<g filter="url(#filter0_d_416_4543)">
<path d="M5.90566 26.2952L6.85359 34.2669L5.90566 26.2952ZM4.89566 2.19494L5.84358 10.1666L4.89566 2.19494ZM10.0472 29.9106L2.7121 30.6515L10.0472 29.9106ZM9.03715 5.81036L1.70209 6.55121L9.03715 5.81036ZM17.732 0.898449L21.9995 9.43108C22.4569 10.3458 22.6858 10.8032 22.9973 11.1769C23.2733 11.5081 23.5961 11.79 23.9529 12.0111C24.3552 12.2606 24.8145 12.4038 25.7326 12.6901L34.298 15.3601L26.5634 19.6765C25.7343 20.1392 25.3196 20.3706 24.9855 20.6946C24.6891 20.9817 24.4401 21.3213 24.2486 21.6998C24.0323 22.1266 23.9164 22.619 23.6847 23.6032L21.5237 32.7852L17.2562 24.2525C16.7988 23.3379 16.5699 22.8804 16.2585 22.5068C15.9825 22.1755 15.6596 21.8937 15.3028 21.6726C14.9005 21.423 14.4413 21.2798 13.523 20.9936L4.95774 18.3235L12.6923 14.0072C13.5215 13.5445 13.9361 13.313 14.2703 12.9891C14.5666 12.702 14.8156 12.3624 15.0072 11.9839C15.2234 11.5569 15.3394 11.0647 15.571 10.0804L17.732 0.898449Z" fill="url(#paint0_linear_416_4543)"/>
<path d="M5.90566 26.2952L6.85359 34.2669M4.89566 2.19494L5.84358 10.1666M10.0472 29.9106L2.7121 30.6515M9.03715 5.81036L1.70209 6.55121M17.732 0.898449L21.9995 9.43108C22.4569 10.3458 22.6858 10.8032 22.9973 11.1769C23.2733 11.5081 23.5961 11.79 23.9529 12.0111C24.3552 12.2606 24.8145 12.4038 25.7326 12.6901L34.298 15.3601L26.5634 19.6765C25.7343 20.1392 25.3196 20.3706 24.9855 20.6946C24.6891 20.9817 24.4401 21.3213 24.2486 21.6998C24.0323 22.1266 23.9164 22.619 23.6847 23.6032L21.5237 32.7852L17.2562 24.2525C16.7988 23.3379 16.5699 22.8804 16.2585 22.5068C15.9825 22.1755 15.6596 21.8937 15.3028 21.6726C14.9005 21.423 14.4413 21.2798 13.5231 20.9936L4.95774 18.3235L12.6923 14.0072C13.5215 13.5445 13.9361 13.313 14.2703 12.9891C14.5666 12.702 14.8156 12.3624 15.0072 11.9839C15.2234 11.5569 15.3394 11.0647 15.571 10.0804L17.732 0.898449Z" stroke="#F9F1FF" stroke-width="1.77359" stroke-linecap="round" stroke-linejoin="round"/>
</g>
<defs>
<filter id="filter0_d_416_4543" x="1.14954e-06" y="0" width="36" height="36.7656" filterUnits="userSpaceOnUse" color-interpolation-filters="sRGB">
<feFlood flood-opacity="0" result="BackgroundImageFix"/>
<feColorMatrix in="SourceAlpha" type="matrix" values="0 0 0 0 0 0 0 0 0 0 0 0 0 0 0 0 0 0 127 0" result="hardAlpha"/>
<feOffset dy="0.78826"/>
<feGaussianBlur stdDeviation="0.39413"/>
<feComposite in2="hardAlpha" operator="out"/>
<feColorMatrix type="matrix" values="0 0 0 0 0 0 0 0 0 0 0 0 0 0 0 0 0 0 0.25 0"/>
<feBlend mode="normal" in2="BackgroundImageFix" result="effect1_dropShadow_416_4543"/>
<feBlend mode="normal" in="SourceGraphic" in2="effect1_dropShadow_416_4543" result="shape"/>
</filter>
<linearGradient id="paint0_linear_416_4543" x1="17.444" y1="13.7918" x2="19.3462" y2="33.0044" gradientUnits="userSpaceOnUse">
<stop stop-color="#FF9ED3"/>
<stop offset="1" stop-color="#7BA2FD"/>
</linearGradient>
</defs>
</svg>
