<svg width="15" height="12" viewBox="0 0 15 12" fill="none" xmlns="http://www.w3.org/2000/svg">
<g filter="url(#filter0_d_416_4624)">
<g clip-path="url(#paint0_diamond_416_4624_clip_path)" data-figma-skip-parse="true"><g transform="matrix(-0.00186682 0.00927686 -0.0248748 -0.0155177 9.09123 1.41025)"><rect x="0" y="0" width="1414.21" height="326.583" fill="url(#paint0_diamond_416_4624)" opacity="1" shape-rendering="crispEdges"/><rect x="0" y="0" width="1414.21" height="326.583" transform="scale(1 -1)" fill="url(#paint0_diamond_416_4624)" opacity="1" shape-rendering="crispEdges"/><rect x="0" y="0" width="1414.21" height="326.583" transform="scale(-1 1)" fill="url(#paint0_diamond_416_4624)" opacity="1" shape-rendering="crispEdges"/><rect x="0" y="0" width="1414.21" height="326.583" transform="scale(-1)" fill="url(#paint0_diamond_416_4624)" opacity="1" shape-rendering="crispEdges"/></g></g><path d="M2.80005 7.31608V9.56123V7.31608ZM3.44523 0.580655V2.8258V0.580655ZM4.0904 8.43866H1.5097H4.0904ZM4.73558 1.70323H2.15488H4.73558ZM7.96145 0.580655L9.09231 3.07522C9.21354 3.34265 9.27419 3.47636 9.36703 3.58911C9.44929 3.68906 9.54987 3.77657 9.66478 3.84814C9.79433 3.92889 9.94807 3.98165 10.2554 4.08712L13.1229 5.07094L10.2554 6.05476C9.94807 6.16023 9.79433 6.21299 9.66478 6.29376C9.54987 6.36532 9.44929 6.45283 9.36703 6.55279C9.27419 6.6655 9.21354 6.79925 9.09231 7.06665L7.96145 9.56123L6.83059 7.06665C6.70936 6.79925 6.64871 6.6655 6.55587 6.55279C6.47361 6.45283 6.37303 6.36532 6.25813 6.29376C6.12857 6.21299 5.97485 6.16023 5.66745 6.05476L2.80005 5.07094L5.66745 4.08712C5.97485 3.98165 6.12857 3.92889 6.25813 3.84814C6.37303 3.77657 6.47361 3.68906 6.55587 3.58911C6.64871 3.47636 6.70936 3.34265 6.83059 3.07522L7.96145 0.580655Z" data-figma-gradient-fill="{&#34;type&#34;:&#34;GRADIENT_DIAMOND&#34;,&#34;stops&#34;:[{&#34;color&#34;:{&#34;r&#34;:1.0,&#34;g&#34;:0.92932683229446411,&#34;b&#34;:0.69711536169052124,&#34;a&#34;:1.0},&#34;position&#34;:0.10954931378364563},{&#34;color&#34;:{&#34;r&#34;:0.92211192846298218,&#34;g&#34;:0.73771953582763672,&#34;b&#34;:0.61177885532379150,&#34;a&#34;:1.0},&#34;position&#34;:0.31125324964523315},{&#34;color&#34;:{&#34;r&#34;:0.99607843160629272,&#34;g&#34;:0.62352943420410156,&#34;b&#34;:0.82745099067687988,&#34;a&#34;:1.0},&#34;position&#34;:0.52884614467620850},{&#34;color&#34;:{&#34;r&#34;:1.0,&#34;g&#34;:0.37660247087478638,&#34;b&#34;:0.71397054195404053,&#34;a&#34;:1.0},&#34;position&#34;:0.75480771064758301},{&#34;color&#34;:{&#34;r&#34;:0.61960786581039429,&#34;g&#34;:0.62745100259780884,&#34;b&#34;:0.94509804248809814,&#34;a&#34;:1.0},&#34;position&#34;:1.0}],&#34;stopsVar&#34;:[{&#34;color&#34;:{&#34;r&#34;:1.0,&#34;g&#34;:0.92932683229446411,&#34;b&#34;:0.69711536169052124,&#34;a&#34;:1.0},&#34;position&#34;:0.10954931378364563},{&#34;color&#34;:{&#34;r&#34;:0.92211192846298218,&#34;g&#34;:0.73771953582763672,&#34;b&#34;:0.61177885532379150,&#34;a&#34;:1.0},&#34;position&#34;:0.31125324964523315},{&#34;color&#34;:{&#34;r&#34;:0.99607843160629272,&#34;g&#34;:0.62352943420410156,&#34;b&#34;:0.82745099067687988,&#34;a&#34;:1.0},&#34;position&#34;:0.52884614467620850},{&#34;color&#34;:{&#34;r&#34;:1.0,&#34;g&#34;:0.37660247087478638,&#34;b&#34;:0.71397054195404053,&#34;a&#34;:1.0},&#34;position&#34;:0.75480771064758301},{&#34;color&#34;:{&#34;r&#34;:0.61960786581039429,&#34;g&#34;:0.62745100259780884,&#34;b&#34;:0.94509804248809814,&#34;a&#34;:1.0},&#34;position&#34;:1.0}],&#34;transform&#34;:{&#34;m00&#34;:-3.7336406707763672,&#34;m01&#34;:-49.749507904052734,&#34;m02&#34;:35.832801818847656,&#34;m10&#34;:18.553722381591797,&#34;m11&#34;:-31.035305023193359,&#34;m12&#34;:7.6510453224182129},&#34;opacity&#34;:1.0,&#34;blendMode&#34;:&#34;NORMAL&#34;,&#34;visible&#34;:true}"/>
<path d="M2.80005 7.31608V9.56123M3.44523 0.580655V2.8258M4.0904 8.43866H1.5097M4.73558 1.70323H2.15488M7.96145 0.580655L9.09231 3.07522C9.21354 3.34265 9.27419 3.47636 9.36703 3.58911C9.44929 3.68906 9.54987 3.77657 9.66478 3.84814C9.79433 3.92889 9.94807 3.98165 10.2554 4.08712L13.1229 5.07094L10.2554 6.05476C9.94807 6.16023 9.79433 6.21299 9.66478 6.29376C9.54987 6.36532 9.44929 6.45283 9.36703 6.55279C9.27419 6.6655 9.21354 6.79925 9.09231 7.06665L7.96145 9.56123L6.83059 7.06665C6.70936 6.79925 6.64871 6.6655 6.55587 6.55279C6.47361 6.45283 6.37303 6.36532 6.25813 6.29376C6.12857 6.21299 5.97485 6.16023 5.66745 6.05476L2.80005 5.07094L5.66745 4.08712C5.97485 3.98165 6.12857 3.92889 6.25813 3.84814C6.37303 3.77657 6.47361 3.68906 6.55587 3.58911C6.64871 3.47636 6.70936 3.34265 6.83059 3.07522L7.96145 0.580655Z" stroke="#F9F1FF" stroke-width="1.12732" stroke-linecap="round" stroke-linejoin="round"/>
</g>
<defs>
<filter id="filter0_d_416_4624" x="-4.17532e-06" y="0" width="14.6326" height="12" filterUnits="userSpaceOnUse" color-interpolation-filters="sRGB">
<feFlood flood-opacity="0" result="BackgroundImageFix"/>
<feColorMatrix in="SourceAlpha" type="matrix" values="0 0 0 0 0 0 0 0 0 0 0 0 0 0 0 0 0 0 127 0" result="hardAlpha"/>
<feOffset dy="0.90186"/>
<feGaussianBlur stdDeviation="0.45093"/>
<feComposite in2="hardAlpha" operator="out"/>
<feColorMatrix type="matrix" values="0 0 0 0 0 0 0 0 0 0 0 0 0 0 0 0 0 0 0.25 0"/>
<feBlend mode="normal" in2="BackgroundImageFix" result="effect1_dropShadow_416_4624"/>
<feBlend mode="normal" in="SourceGraphic" in2="effect1_dropShadow_416_4624" result="shape"/>
</filter>
<clipPath id="paint0_diamond_416_4624_clip_path"><path d="M2.80005 7.31608V9.56123V7.31608ZM3.44523 0.580655V2.8258V0.580655ZM4.0904 8.43866H1.5097H4.0904ZM4.73558 1.70323H2.15488H4.73558ZM7.96145 0.580655L9.09231 3.07522C9.21354 3.34265 9.27419 3.47636 9.36703 3.58911C9.44929 3.68906 9.54987 3.77657 9.66478 3.84814C9.79433 3.92889 9.94807 3.98165 10.2554 4.08712L13.1229 5.07094L10.2554 6.05476C9.94807 6.16023 9.79433 6.21299 9.66478 6.29376C9.54987 6.36532 9.44929 6.45283 9.36703 6.55279C9.27419 6.6655 9.21354 6.79925 9.09231 7.06665L7.96145 9.56123L6.83059 7.06665C6.70936 6.79925 6.64871 6.6655 6.55587 6.55279C6.47361 6.45283 6.37303 6.36532 6.25813 6.29376C6.12857 6.21299 5.97485 6.16023 5.66745 6.05476L2.80005 5.07094L5.66745 4.08712C5.97485 3.98165 6.12857 3.92889 6.25813 3.84814C6.37303 3.77657 6.47361 3.68906 6.55587 3.58911C6.64871 3.47636 6.70936 3.34265 6.83059 3.07522L7.96145 0.580655Z"/></clipPath><linearGradient id="paint0_diamond_416_4624" x1="0" y1="0" x2="500" y2="500" gradientUnits="userSpaceOnUse">
<stop offset="0.109549" stop-color="#FFEDB2"/>
<stop offset="0.311253" stop-color="#EBBC9C"/>
<stop offset="0.528846" stop-color="#FE9FD3"/>
<stop offset="0.754808" stop-color="#FF60B6"/>
<stop offset="1" stop-color="#9EA0F1"/>
</linearGradient>
</defs>
</svg>
