<svg width="19" height="18" viewBox="0 0 19 18" fill="none" xmlns="http://www.w3.org/2000/svg">
<path d="M18.831 4.03765C18.0312 1.1156 15.0157 -0.603792 12.0937 0.196054C10.4793 0.637945 9.23382 1.75443 8.57599 3.15841C7.29481 2.28518 5.65207 1.9593 4.03998 2.40057C1.11793 3.20041 -0.601464 6.21585 0.198383 9.13791C0.618055 10.6711 1.67494 11.7608 2.95604 12.5541L12.6078 17.8083L18.1296 8.48792C18.8095 7.23542 19.2624 5.61366 18.831 4.03765Z" fill="#FF60B6"/>
<path d="M12.6078 17.8083L2.95374 12.5547C1.67039 11.7621 0.615763 10.6717 0.196084 9.13854C-0.603762 6.21648 1.11563 3.20104 4.03768 2.4012C5.65203 1.95931 7.29252 2.28581 8.57369 3.15904L12.6078 17.8083Z" fill="#FF60B6"/>
</svg>
